ffmpeg started on 2025-06-07 at 18:01:40
Report written to "D:\Convert\FFMetrics\reports\ssim_report-6.txt"
Log level: 32
Command line:
ffmpeg -hide_banner -nostdin -i "G:\\\xc0\xed\xe8\xec\xe5\\\xce\xed\xe3\xee\xe8\xed\xe3\xe8\\!_36_\xce\xf1\xe5\xed\xfc_2024\\DreamCast\\\xdd\xe9, \xd2\xee\xec\xe1\xee!\\\xd2\xc2-2\\[DC] Tonbo 2 - 12_Telegram_HEVC.mkv" -i "G:\\\xc0\xed\xe8\xec\xe5\\\xce\xed\xe3\xee\xe8\xed\xe3\xe8\\!_36_\xce\xf1\xe5\xed\xfc_2024\\DreamCast\\\xdd\xe9, \xd2\xee\xec\xe1\xee!\\\xd2\xc2-2\\[DC] Tonbo 2 - 12_Telegram.mp4" -lavfi "[0:v]settb=AVTB,setpts=PTS-STARTPTS,format=pix_fmts=yuv420p10,fps=24000/1001,scale=1920:1080:flags=bicubic[main];[1:v]settb=AVTB,setpts=PTS-STARTPTS,format=pix_fmts=yuv420p,fps=24000/1001,scale=1920:1080:flags=bicubic[ref];[main][ref]ssim=eof_action=endall:stats_file='D\\:/Convert/FFMetrics/logs/ssim_logfile-6.txt'" -f null -
Input #0, matroska,webm, from 'G:\Аниме\Онгоинги\!_36_Осень_2024\DreamCast\Эй, Томбо!\ТВ-2\[DC] Tonbo 2 - 12_Telegram_HEVC.mkv':
  Metadata:
    COMPATIBLE_BRANDS: isomiso2avc1mp41
    MAJOR_BRAND     : isom
    MINOR_VERSION   : 512
    ENCODER         : Lavf61.7.100
  Duration: 00:24:20.78, start: -0.021000, bitrate: 1642 kb/s
  Stream #0:0: Video: hevc (Main 10), yuv420p10le(tv, bt709, progressive), 1920x1080 [SAR 1:1 DAR 16:9], 23.98 fps, 23.98 tbr, 1k tbn (default)
      Metadata:
        HANDLER_NAME    : VideoHandler
        VENDOR_ID       : [0][0][0][0]
        ENCODER         : Lavc61.19.100 libx265
        BPS             : 1446120
        DURATION        : 00:24:19.666708333
        NUMBER_OF_FRAMES: 34997
        NUMBER_OF_BYTES : 263856678
        _STATISTICS_WRITING_APP: mkvpropedit v66.0.0 ('Josie') 64-bit
        _STATISTICS_WRITING_DATE_UTC: 2025-06-06 09:10:18
        _STATISTICS_TAGS: BPS DURATION NUMBER_OF_FRAMES NUMBER_OF_BYTES
  Stream #0:1: Audio: aac (LC), 48000 Hz, stereo, fltp (default)
      Metadata:
        HANDLER_NAME    : SoundHandler
        VENDOR_ID       : [0][0][0][0]
        ENCODER         : Lavc61.19.100 aac
        BPS             : 193728
        DURATION        : 00:24:20.778000000
        NUMBER_OF_FRAMES: 68475
        NUMBER_OF_BYTES : 35374289
        _STATISTICS_WRITING_APP: mkvpropedit v66.0.0 ('Josie') 64-bit
        _STATISTICS_WRITING_DATE_UTC: 2025-06-06 09:10:18
        _STATISTICS_TAGS: BPS DURATION NUMBER_OF_FRAMES NUMBER_OF_BYTES
Input #1, mov,mp4,m4a,3gp,3g2,mj2, from 'G:\Аниме\Онгоинги\!_36_Осень_2024\DreamCast\Эй, Томбо!\ТВ-2\[DC] Tonbo 2 - 12_Telegram.mp4':
  Metadata:
    major_brand     : isom
    minor_version   : 512
    compatible_brands: isomiso2avc1mp41
    encoder         : Lavf61.1.100
  Duration: 00:24:20.73, start: 0.000000, bitrate: 3835 kb/s
  Stream #1:0[0x1](und): Video: h264 (High) (avc1 / 0x31637661), yuv420p(tv, bt709, progressive), 1920x1080 [SAR 1:1 DAR 16:9], 3690 kb/s, 23.98 fps, 23.98 tbr, 24k tbn (default)
      Metadata:
        handler_name    : VideoHandler
        vendor_id       : [0][0][0][0]
        encoder         : Lavc61.3.100 h264_qsv
  Stream #1:1[0x2](und): Audio: aac (HE-AACv2) (mp4a / 0x6134706D), 48000 Hz, stereo, fltp, 144 kb/s (default)
      Metadata:
        handler_name    : SoundHandler
        vendor_id       : [0][0][0][0]
Stream mapping:
  Stream #0:0 (hevc) -> settb:default
  Stream #1:0 (h264) -> settb:default
  ssim:default -> Stream #0:0 (wrapped_avframe)
  Stream #0:1 -> #0:1 (aac (native) -> pcm_s16le (native))
Output #0, null, to 'pipe:':
  Metadata:
    COMPATIBLE_BRANDS: isomiso2avc1mp41
    MAJOR_BRAND     : isom
    MINOR_VERSION   : 512
    encoder         : Lavf61.7.100
  Stream #0:0: Video: wrapped_avframe, yuv420p10le(tv, bt709, progressive), 1920x1080 [SAR 1:1 DAR 16:9], q=2-31, 200 kb/s, 23.98 fps, 23.98 tbn
      Metadata:
        encoder         : Lavc61.19.100 wrapped_avframe
  Stream #0:1: Audio: pcm_s16le, 48000 Hz, stereo, s16, 1536 kb/s (default)
      Metadata:
        HANDLER_NAME    : SoundHandler
        VENDOR_ID       : [0][0][0][0]
        _STATISTICS_TAGS: BPS DURATION NUMBER_OF_FRAMES NUMBER_OF_BYTES
        BPS             : 193728
        DURATION        : 00:24:20.778000000
        NUMBER_OF_FRAMES: 68475
        NUMBER_OF_BYTES : 35374289
        _STATISTICS_WRITING_APP: mkvpropedit v66.0.0 ('Josie') 64-bit
        _STATISTICS_WRITING_DATE_UTC: 2025-06-06 09:10:18
        encoder         : Lavc61.19.100 pcm_s16le
frame=  174 fps=0.0 q=-0.0 size=N/A time=00:00:07.25 bitrate=N/A speed=14.2x    frame=  365 fps=353 q=-0.0 size=N/A time=00:00:15.22 bitrate=N/A speed=14.7x    frame=  598 fps=388 q=-0.0 size=N/A time=00:00:24.94 bitrate=N/A speed=16.2x    frame=  832 fps=402 q=-0.0 size=N/A time=00:00:34.70 bitrate=N/A speed=16.8x    frame= 1057 fps=410 q=-0.0 size=N/A time=00:00:44.08 bitrate=N/A speed=17.1x    frame= 1297 fps=420 q=-0.0 size=N/A time=00:00:54.09 bitrate=N/A speed=17.5x    frame= 1455 fps=404 q=-0.0 size=N/A time=00:01:00.68 bitrate=N/A speed=16.9x    frame= 1665 fps=403 q=-0.0 size=N/A time=00:01:09.44 bitrate=N/A speed=16.8x    frame= 1865 fps=402 q=-0.0 size=N/A time=00:01:17.78 bitrate=N/A speed=16.8x    frame= 2079 fps=404 q=-0.0 size=N/A time=00:01:26.71 bitrate=N/A speed=16.8x    frame= 2322 fps=409 q=-0.0 size=N/A time=00:01:36.84 bitrate=N/A speed=17.1x    frame= 2555 fps=413 q=-0.0 size=N/A time=00:01:46.56 bitrate=N/A speed=17.2x    frame= 2736 fps=409 q=-0.0 size=N/A time=00:01:54.11 bitrate=N/A speed=  17x    frame= 2876 fps=398 q=-0.0 size=N/A time=00:01:59.95 bitrate=N/A speed=16.6x    frame= 3051 fps=395 q=-0.0 size=N/A time=00:02:07.25 bitrate=N/A speed=16.5x    frame= 3269 fps=397 q=-0.0 size=N/A time=00:02:16.34 bitrate=N/A speed=16.5x    frame= 3419 fps=390 q=-0.0 size=N/A time=00:02:22.60 bitrate=N/A speed=16.3x    frame= 3591 fps=387 q=-0.0 size=N/A time=00:02:29.77 bitrate=N/A speed=16.1x    frame= 3874 fps=396 q=-0.0 size=N/A time=00:02:41.57 bitrate=N/A speed=16.5x    frame= 4063 fps=394 q=-0.0 size=N/A time=00:02:49.46 bitrate=N/A speed=16.4x    frame= 4264 fps=394 q=-0.0 size=N/A time=00:02:57.84 bitrate=N/A speed=16.4x    frame= 4498 fps=396 q=-0.0 size=N/A time=00:03:07.60 bitrate=N/A speed=16.5x    frame= 4726 fps=399 q=-0.0 size=N/A time=00:03:17.11 bitrate=N/A speed=16.6x    frame= 4978 fps=402 q=-0.0 size=N/A time=00:03:27.62 bitrate=N/A speed=16.8x    frame= 5239 fps=407 q=-0.0 size=N/A time=00:03:38.50 bitrate=N/A speed=  17x    frame= 5481 fps=409 q=-0.0 size=N/A time=00:03:48.60 bitrate=N/A speed=17.1x    frame= 5723 fps=411 q=-0.0 size=N/A time=00:03:58.69 bitrate=N/A speed=17.1x    frame= 5901 fps=409 q=-0.0 size=N/A time=00:04:06.12 bitrate=N/A speed=  17x    frame= 6108 fps=409 q=-0.0 size=N/A time=00:04:14.75 bitrate=N/A speed=  17x    frame= 6350 fps=411 q=-0.0 size=N/A time=00:04:24.84 bitrate=N/A speed=17.1x    frame= 6538 fps=409 q=-0.0 size=N/A time=00:04:32.68 bitrate=N/A speed=17.1x    frame= 6750 fps=409 q=-0.0 size=N/A time=00:04:41.53 bitrate=N/A speed=17.1x    frame= 7008 fps=412 q=-0.0 size=N/A time=00:04:52.29 bitrate=N/A speed=17.2x    frame= 7271 fps=415 q=-0.0 size=N/A time=00:05:03.26 bitrate=N/A speed=17.3x    frame= 7535 fps=418 q=-0.0 size=N/A time=00:05:14.27 bitrate=N/A speed=17.4x    frame= 7745 fps=417 q=-0.0 size=N/A time=00:05:23.03 bitrate=N/A speed=17.4x    frame= 7932 fps=416 q=-0.0 size=N/A time=00:05:30.83 bitrate=N/A speed=17.3x    frame= 8156 fps=416 q=-0.0 size=N/A time=00:05:40.17 bitrate=N/A speed=17.4x    frame= 8395 fps=418 q=-0.0 size=N/A time=00:05:50.14 bitrate=N/A speed=17.4x    frame= 8635 fps=419 q=-0.0 size=N/A time=00:06:00.15 bitrate=N/A speed=17.5x    frame= 8880 fps=420 q=-0.0 size=N/A time=00:06:10.37 bitrate=N/A speed=17.5x    frame= 9087 fps=420 q=-0.0 size=N/A time=00:06:19.00 bitrate=N/A speed=17.5x    frame= 9319 fps=420 q=-0.0 size=N/A time=00:06:28.67 bitrate=N/A speed=17.5x    frame= 9534 fps=420 q=-0.0 size=N/A time=00:06:37.64 bitrate=N/A speed=17.5x    frame= 9813 fps=423 q=-0.0 size=N/A time=00:06:49.28 bitrate=N/A speed=17.6x    frame=10045 fps=423 q=-0.0 size=N/A time=00:06:58.96 bitrate=N/A speed=17.7x    frame=10280 fps=424 q=-0.0 size=N/A time=00:07:08.76 bitrate=N/A speed=17.7x    frame=10443 fps=422 q=-0.0 size=N/A time=00:07:15.56 bitrate=N/A speed=17.6x    frame=10710 fps=424 q=-0.0 size=N/A time=00:07:26.69 bitrate=N/A speed=17.7x    frame=10975 fps=426 q=-0.0 size=N/A time=00:07:37.74 bitrate=N/A speed=17.8x    frame=11184 fps=425 q=-0.0 size=N/A time=00:07:46.46 bitrate=N/A speed=17.7x    frame=11372 fps=424 q=-0.0 size=N/A time=00:07:54.30 bitrate=N/A speed=17.7x    frame=11622 fps=425 q=-0.0 size=N/A time=00:08:04.73 bitrate=N/A speed=17.7x    frame=11864 fps=426 q=-0.0 size=N/A time=00:08:14.82 bitrate=N/A speed=17.8x    frame=12131 fps=428 q=-0.0 size=N/A time=00:08:25.96 bitrate=N/A speed=17.8x    frame=12355 fps=428 q=-0.0 size=N/A time=00:08:35.30 bitrate=N/A speed=17.8x    frame=12607 fps=429 q=-0.0 size=N/A time=00:08:45.81 bitrate=N/A speed=17.9x    frame=12867 fps=430 q=-0.0 size=N/A time=00:08:56.66 bitrate=N/A speed=17.9x    frame=13100 fps=430 q=-0.0 size=N/A time=00:09:06.37 bitrate=N/A speed=  18x    frame=13381 fps=432 q=-0.0 size=N/A time=00:09:18.09 bitrate=N/A speed=  18x    frame=13634 fps=433 q=-0.0 size=N/A time=00:09:28.65 bitrate=N/A speed=18.1x    frame=13817 fps=432 q=-0.0 size=N/A time=00:09:36.28 bitrate=N/A speed=  18x    frame=14043 fps=432 q=-0.0 size=N/A time=00:09:45.71 bitrate=N/A speed=  18x    frame=14303 fps=433 q=-0.0 size=N/A time=00:09:56.55 bitrate=N/A speed=18.1x    frame=14554 fps=434 q=-0.0 size=N/A time=00:10:07.02 bitrate=N/A speed=18.1x    frame=14806 fps=435 q=-0.0 size=N/A time=00:10:17.53 bitrate=N/A speed=18.1x    frame=15048 fps=435 q=-0.0 size=N/A time=00:10:27.62 bitrate=N/A speed=18.2x    frame=15271 fps=435 q=-0.0 size=N/A time=00:10:36.92 bitrate=N/A speed=18.2x    frame=15491 fps=435 q=-0.0 size=N/A time=00:10:46.10 bitrate=N/A speed=18.2x    frame=15728 fps=436 q=-0.0 size=N/A time=00:10:55.98 bitrate=N/A speed=18.2x    frame=15957 fps=436 q=-0.0 size=N/A time=00:11:05.53 bitrate=N/A speed=18.2x    frame=16179 fps=436 q=-0.0 size=N/A time=00:11:14.79 bitrate=N/A speed=18.2x    frame=16407 fps=436 q=-0.0 size=N/A time=00:11:24.30 bitrate=N/A speed=18.2x    frame=16611 fps=435 q=-0.0 size=N/A time=00:11:32.81 bitrate=N/A speed=18.1x    frame=16851 fps=436 q=-0.0 size=N/A time=00:11:42.82 bitrate=N/A speed=18.2x    frame=17082 fps=436 q=-0.0 size=N/A time=00:11:52.46 bitrate=N/A speed=18.2x    frame=17261 fps=434 q=-0.0 size=N/A time=00:11:59.92 bitrate=N/A speed=18.1x    frame=17476 fps=434 q=-0.0 size=N/A time=00:12:08.93 bitrate=N/A speed=18.1x    frame=17685 fps=434 q=-0.0 size=N/A time=00:12:17.61 bitrate=N/A speed=18.1x    frame=17953 fps=435 q=-0.0 size=N/A time=00:12:28.78 bitrate=N/A speed=18.1x    frame=18186 fps=435 q=-0.0 size=N/A time=00:12:38.50 bitrate=N/A speed=18.1x    frame=18380 fps=434 q=-0.0 size=N/A time=00:12:46.59 bitrate=N/A speed=18.1x    frame=18652 fps=435 q=-0.0 size=N/A time=00:12:57.94 bitrate=N/A speed=18.2x    frame=18872 fps=435 q=-0.0 size=N/A time=00:13:07.11 bitrate=N/A speed=18.2x    frame=19093 fps=435 q=-0.0 size=N/A time=00:13:16.33 bitrate=N/A speed=18.2x    frame=19307 fps=435 q=-0.0 size=N/A time=00:13:25.26 bitrate=N/A speed=18.1x    frame=19550 fps=435 q=-0.0 size=N/A time=00:13:35.39 bitrate=N/A speed=18.2x    frame=19702 fps=434 q=-0.0 size=N/A time=00:13:41.73 bitrate=N/A speed=18.1x    frame=19907 fps=433 q=-0.0 size=N/A time=00:13:50.28 bitrate=N/A speed=18.1x    frame=20071 fps=432 q=-0.0 size=N/A time=00:13:57.12 bitrate=N/A speed=  18x    frame=20264 fps=431 q=-0.0 size=N/A time=00:14:05.17 bitrate=N/A speed=  18x    frame=20456 fps=431 q=-0.0 size=N/A time=00:14:13.18 bitrate=N/A speed=  18x    frame=20600 fps=429 q=-0.0 size=N/A time=00:14:19.19 bitrate=N/A speed=17.9x    frame=20763 fps=428 q=-0.0 size=N/A time=00:14:25.99 bitrate=N/A speed=17.9x    frame=21004 fps=428 q=-0.0 size=N/A time=00:14:36.04 bitrate=N/A speed=17.9x    frame=21214 fps=428 q=-0.0 size=N/A time=00:14:44.80 bitrate=N/A speed=17.9x    frame=21428 fps=428 q=-0.0 size=N/A time=00:14:53.72 bitrate=N/A speed=17.9x    frame=21634 fps=428 q=-0.0 size=N/A time=00:15:02.31 bitrate=N/A speed=17.8x    frame=21859 fps=428 q=-0.0 size=N/A time=00:15:11.70 bitrate=N/A speed=17.8x    frame=22089 fps=428 q=-0.0 size=N/A time=00:15:21.29 bitrate=N/A speed=17.9x    frame=22331 fps=428 q=-0.0 size=N/A time=00:15:31.38 bitrate=N/A speed=17.9x    frame=22534 fps=428 q=-0.0 size=N/A time=00:15:39.85 bitrate=N/A speed=17.9x    frame=22756 fps=428 q=-0.0 size=N/A time=00:15:49.11 bitrate=N/A speed=17.9x    frame=22984 fps=428 q=-0.0 size=N/A time=00:15:58.62 bitrate=N/A speed=17.9x    frame=23236 fps=429 q=-0.0 size=N/A time=00:16:09.13 bitrate=N/A speed=17.9x    frame=23479 fps=429 q=-0.0 size=N/A time=00:16:19.26 bitrate=N/A speed=17.9x    frame=23697 fps=429 q=-0.0 size=N/A time=00:16:28.36 bitrate=N/A speed=17.9x    frame=23936 fps=430 q=-0.0 size=N/A time=00:16:38.33 bitrate=N/A speed=17.9x    frame=24185 fps=430 q=-0.0 size=N/A time=00:16:48.71 bitrate=N/A speed=17.9x    frame=24424 fps=430 q=-0.0 size=N/A time=00:16:58.68 bitrate=N/A speed=17.9x    frame=24691 fps=431 q=-0.0 size=N/A time=00:17:09.82 bitrate=N/A speed=  18x    frame=24923 fps=431 q=-0.0 size=N/A time=00:17:19.49 bitrate=N/A speed=  18x    frame=25171 fps=432 q=-0.0 size=N/A time=00:17:29.84 bitrate=N/A speed=  18x    frame=25459 fps=433 q=-0.0 size=N/A time=00:17:41.85 bitrate=N/A speed=18.1x    frame=25689 fps=433 q=-0.0 size=N/A time=00:17:51.44 bitrate=N/A speed=18.1x    frame=25916 fps=433 q=-0.0 size=N/A time=00:18:00.91 bitrate=N/A speed=18.1x    frame=26144 fps=433 q=-0.0 size=N/A time=00:18:10.42 bitrate=N/A speed=18.1x    frame=26384 fps=433 q=-0.0 size=N/A time=00:18:20.43 bitrate=N/A speed=18.1x    frame=26621 fps=434 q=-0.0 size=N/A time=00:18:30.31 bitrate=N/A speed=18.1x    frame=26902 fps=434 q=-0.0 size=N/A time=00:18:42.03 bitrate=N/A speed=18.1x    frame=27180 fps=435 q=-0.0 size=N/A time=00:18:53.63 bitrate=N/A speed=18.2x    frame=27460 fps=436 q=-0.0 size=N/A time=00:19:05.31 bitrate=N/A speed=18.2x    frame=27736 fps=437 q=-0.0 size=N/A time=00:19:16.82 bitrate=N/A speed=18.2x    frame=28021 fps=438 q=-0.0 size=N/A time=00:19:28.70 bitrate=N/A speed=18.3x    frame=28273 fps=438 q=-0.0 size=N/A time=00:19:39.21 bitrate=N/A speed=18.3x    frame=28542 fps=439 q=-0.0 size=N/A time=00:19:50.43 bitrate=N/A speed=18.3x    frame=28771 fps=439 q=-0.0 size=N/A time=00:19:59.99 bitrate=N/A speed=18.3x    frame=29036 fps=440 q=-0.0 size=N/A time=00:20:11.04 bitrate=N/A speed=18.3x    frame=29316 fps=440 q=-0.0 size=N/A time=00:20:22.72 bitrate=N/A speed=18.4x    frame=29579 fps=441 q=-0.0 size=N/A time=00:20:33.69 bitrate=N/A speed=18.4x    frame=29858 fps=442 q=-0.0 size=N/A time=00:20:45.32 bitrate=N/A speed=18.4x    frame=30131 fps=442 q=-0.0 size=N/A time=00:20:56.71 bitrate=N/A speed=18.5x    frame=30382 fps=443 q=-0.0 size=N/A time=00:21:07.18 bitrate=N/A speed=18.5x    frame=30676 fps=444 q=-0.0 size=N/A time=00:21:19.44 bitrate=N/A speed=18.5x    frame=30951 fps=444 q=-0.0 size=N/A time=00:21:30.91 bitrate=N/A speed=18.5x    frame=31225 fps=445 q=-0.0 size=N/A time=00:21:42.34 bitrate=N/A speed=18.6x    frame=31508 fps=446 q=-0.0 size=N/A time=00:21:54.14 bitrate=N/A speed=18.6x    frame=31782 fps=446 q=-0.0 size=N/A time=00:22:05.57 bitrate=N/A speed=18.6x    frame=32046 fps=447 q=-0.0 size=N/A time=00:22:16.58 bitrate=N/A speed=18.6x    frame=32260 fps=447 q=-0.0 size=N/A time=00:22:25.51 bitrate=N/A speed=18.6x    frame=32462 fps=446 q=-0.0 size=N/A time=00:22:33.93 bitrate=N/A speed=18.6x    frame=32675 fps=446 q=-0.0 size=N/A time=00:22:42.81 bitrate=N/A speed=18.6x    frame=32917 fps=446 q=-0.0 size=N/A time=00:22:52.91 bitrate=N/A speed=18.6x    frame=33157 fps=446 q=-0.0 size=N/A time=00:23:02.92 bitrate=N/A speed=18.6x    frame=33390 fps=446 q=-0.0 size=N/A time=00:23:12.64 bitrate=N/A speed=18.6x    frame=33591 fps=446 q=-0.0 size=N/A time=00:23:21.02 bitrate=N/A speed=18.6x    frame=33838 fps=446 q=-0.0 size=N/A time=00:23:31.32 bitrate=N/A speed=18.6x    frame=34029 fps=446 q=-0.0 size=N/A time=00:23:39.29 bitrate=N/A speed=18.6x    frame=34245 fps=445 q=-0.0 size=N/A time=00:23:48.30 bitrate=N/A speed=18.6x    frame=34455 fps=445 q=-0.0 size=N/A time=00:23:57.06 bitrate=N/A speed=18.6x    frame=34652 fps=445 q=-0.0 size=N/A time=00:24:05.27 bitrate=N/A speed=18.6x    frame=34875 fps=445 q=-0.0 size=N/A time=00:24:14.57 bitrate=N/A speed=18.5x    [Parsed_ssim_10 @ 000001b06f396840] SSIM Y:0.992090 (21.018059) U:0.991997 (20.967739) V:0.993188 (21.666978) All:0.992257 (21.111073)
[out#0/null @ 000001b06d134200] video:15038KiB audio:273900KiB subtitle:0KiB other streams:0KiB global headers:0KiB muxing overhead: unknown
frame=34997 fps=445 q=-0.0 Lsize=N/A time=00:24:19.66 bitrate=N/A speed=18.5x    
